{"title":"Straight.Outta.Compton.2015.HC.HDRip.x264-MenaceIISociety","uid":12327026,"size":1144366798,"categoryP":"video","categoryS":"movies","magnet":"?xt=urn:btih:656cfa2ce610608249c100d671b901b53fe01f0a&amp;dn=Straight.Outta.Compton.2015.HC.HDRip.x264-MenaceIISociety&amp;tr=udp%3A%2F%2Ftracker.openbittorrent.com%3A80&amp;tr=udp%3A%2F%2Fopen.demonii.com%3A1337&amp;tr=udp%3A%2F%2Ftracker.coppersurfer.tk%3A6969&amp;tr=udp%3A%2F%2Fexodus.desync.com%3A6969","seeders":2,"leechers":3,"uploader":"TvTeam","files":4,"time":1441130806,"description":"------------------------------------------------------------------------\n\n &lt;a href=&quot; https://www.torrenting.com&quot; rel=&quot;nofollow&quot; target=&quot;_NEW&quot;&gt; https://www.torrenting.com&lt;/a&gt;\n\nSign up is OPEN - for time being. Come and have fun\n\n.......................................................................................................................[center][img]http://i.imgur.com/M6lxQ5v.png[/img]\n\nStraight.Outta.Compton.2015.HC.HDRip.x264-MenaceIISociety &lt;a href=&quot;\nhttp://www.imdb.com/title/tt1398426/&quot; rel=&quot;nofollow&quot; target=&quot;_NEW&quot;&gt;\nhttp://www.imdb.com/title/tt1398426/&lt;/a&gt;\n\nSource: PROPER VERSION NO SKIPS // HD720P.X264.AAC.English.CHS.Mp4Ba [THANKS]\n\nNOTE: we used the proper source with no runtime issues, there is 1 line of subs, adjusted some gamma_y, gain_y, sat, and some levels, its an improvement, enjoy.\n\nGeneral\nComplete name                            : Straight.Outta.Compton.2015.HC.HDRip.x264-MenaceIISociety.mp4\nFormat                                   : MPEG-4\nFormat profile                           : Base Media\nCodec ID                                 : isom\nFile size                                : 1.05 GiB\nDuration                                 : 2h 24mn\nOverall bit rate mode                    : Variable\nOverall bit rate                         : 1 042 Kbps\nEncoded date                             : UTC 2015-08-28 19:22:55\nTagged date                              : UTC 2015-08-28 19:22:55\n\nVideo\nID                                       : 1\nFormat                                   : AVC\nFormat/Info                              : Advanced Video Codec\nFormat profile                           : &lt;a class=&quot;__cf_email__&quot; href=&quot;/cdn-cgi/l/email-protection&quot; data-cfemail=&quot;bcf4d5dbd4fcf088928d&quot;&gt;[email&amp;#160;protected]&lt;/a&gt;&lt;script data-cfhash='f9e31' type=&quot;text/javascript&quot;&gt;\n/* &lt;![CDATA[ */!function(){try{var t=&quot;currentScript&quot;in document?document.currentScript:function(){for(var t=document.getElementsByTagName(&quot;script&quot;),e=t.length;e--;)if(t[e].getAttribute(&quot;data-cfhash&quot;))return t[e]}();if(t&amp;&amp;t.previousSibling){var e,r,n,i,c=t.previousSibling,a=c.getAttribute(&quot;data-cfemail&quot;);if(a){for(e=&quot;&quot;,r=parseInt(a.substr(0,2),16),n=2;a.length-n;n+=2)i=parseInt(a.substr(n,2),16)^r,e+=String.fromCharCode(i);e=document.createTextNode(e),c.parentNode.replaceChild(e,c)}t.parentNode.removeChild(t);}}catch(u){}}()/* ]]&gt; */&lt;/script&gt;\nFormat settings, CABAC                   : Yes\nFormat settings, ReFrames                : 3 frames\nCodec ID                                 : avc1\nCodec ID/Info                            : Advanced Video Coding\nDuration                                 : 2h 24mn\nBit rate mode                            : Variable\nBit rate                                 : 949 Kbps\nMaximum bit rate                         : 40.0 Mbps\nWidth                                    : 720 pixels\nHeight                                   : 304 pixels\nDisplay aspect ratio                     : 2.35:1\nFrame rate mode                          : Constant\nFrame rate                               : 25.000 fps\nColor space                              : YUV\nChroma subsampling                       : 4:2:0\nBit depth                                : 8 bits\nScan type                                : Progressive\nBits/(Pixel*Frame)                       : 0.173\nStream size                              : 978 MiB (91%)\nWriting library                          : x264 core 148 r2579 73ae2d1\n\nAudio\nID                                       : 2\nFormat                                   : AAC\nFormat/Info                              : Advanced Audio Codec\nFormat profile                           : LC\nCodec ID                                 : 40\nDuration                                 : 2h 24mn\nBit rate mode                            : Variable\nBit rate                                 : 89.0 Kbps\nMaximum bit rate                         : 100 Kbps\nChannel(s)                               : 2 channels\nChannel positions                        : Front: L R\nSampling rate                            : 48.0 KHz\nCompression mode                         : Lossy\nStream size                              : 91.7 MiB (9%)\nLanguage                                 : English\nEncoded date                             : UTC 2015-08-28 17:43:27\nTagged date                              : UTC 2015-08-28 19:24:14\n\n[img]http://s16.postimg.org/xalrs2j4l/vlcsnap_2015_08_28_22h12m16s197.jpg[/img]\n[img]http://s16.postimg.org/k569lyp91/vlcsnap_2015_08_28_22h14m03s756.jpg[/img]\n[img]http://s16.postimg.org/fyq0kdf11/vlcsnap_2015_08_28_22h15m05s112.jpg[/img]\n[img]http://s16.postimg.org/mqgfn840l/vlcsnap_2015_08_28_22h15m14s932.jpg[/img]\n[img]http://s16.postimg.org/8zbyl0f2t/vlcsnap_2015_08_28_22h15m36s550.jpg[/img]\n[img]http://s16.postimg.org/iilneh2l1/vlcsnap_2015_08_28_22h20m05s365.jpg[/img]\n[img]http://s16.postimg.org/nwkfm0sb9/vlcsnap_2015_08_28_22h58m05s337.jpg[/img]\n[img]http://s16.postimg.org/5i9wi1g0l/vlcsnap_2015_08_28_22h58m17s702.jpg[/img]\n[img]http://s16.postimg.org/pqxa3rfbp/vlcsnap_2015_08_28_22h58m44s596.jpg[/img]\n[img]http://s16.postimg.org/dqbu317x1/vlcsnap_2015_08_28_23h00m49s871.jpg[/img]\n[img]http://s16.postimg.org/wl7ktg7yt/vlcsnap_2015_08_28_23h01m09s378.jpg[/img]\n[img]http://s16.postimg.org/bn1evd845/vlcsnap_2015_08_28_23h01m44s652.jpg[/img]\n[img]http://s16.postimg.org/62tiygymt/vlcsnap_2015_08_28_23h02m22s090.jpg[/img]\n[img]http://s16.postimg.org/u5actcf9x/vlcsnap_2015_08_28_23h02m55s491.jpg[/img]\n[img]http://s16.postimg.org/rrsf2c0ut/vlcsnap_2015_08_28_23h03m18s258.jpg[/img]\n[img]http://s16.postimg.org/lgn7lwzmd/vlcsnap_2015_08_28_23h03m28s641.jpg[/img]\n[img]http://s16.postimg.org/x4h9ggor9/vlcsnap_2015_08_28_23h05m11s101.jpg[/img]\n[img]http://s16.postimg.org/e9liq1oph/vlcsnap_2015_08_28_23h06m22s903.jpg[/img]\n[img]http://s16.postimg.org/g6i8umfdh/vlcsnap_2015_08_28_23h06m34s505.jpg[/img]\n[img]http://s16.postimg.org/deyz40gut/vlcsnap_2015_08_28_23h07m11s737.jpg[/img]\n[img]http://s16.postimg.org/zcvfxsvv9/vlcsnap_2015_08_28_23h08m16s043.jpg[/img] \n \n[img]http://s17.postimg.org/r1iiyw8yn/Untitled_1.png[/img][/center]","torrent":{"xt":"urn:btih:656cfa2ce610608249c100d671b901b53fe01f0a","amp;dn":"Straight.Outta.Compton.2015.HC.HDRip.x264-MenaceIISociety","amp;tr":["udp%3A%2F%2Ftracker.openbittorrent.com%3A80","udp%3A%2F%2Fopen.demonii.com%3A1337","udp%3A%2F%2Ftracker.coppersurfer.tk%3A6969","udp%3A%2F%2Fexodus.desync.com%3A6969"],"infoHash":"656cfa2ce610608249c100d671b901b53fe01f0a","infoHashBuffer":{"type":"Buffer","data":[101,108,250,44,230,16,96,130,73,193,0,214,113,185,1,181,63,224,31,10]},"announce":[],"urlList":[]}}